<svg width="32" height="32" viewBox="0 0 32 32" fill="none" xmlns="http://www.w3.org/2000/svg">
<path d="M9.81812 14.9091L14.5454 19.6364L29.0908 5.09091" stroke="white" stroke-width="1.5"/>
<path fill-rule="evenodd" clip-rule="evenodd" d="M23.5745 6.4933C21.4642 4.71081 18.7364 3.63636 15.7577 3.63636C9.06333 3.63636 3.63647 9.06321 3.63647 15.7576C3.63647 22.4519 9.06333 27.8788 15.7577 27.8788C22.452 27.8788 27.8789 22.4519 27.8789 15.7576C27.8789 14.1736 27.5751 12.6605 27.0225 11.2735L25.8522 12.4438C26.1938 13.4852 26.3789 14.5986 26.3789 15.7576C26.3789 21.6235 21.6236 26.3788 15.7577 26.3788C9.89175 26.3788 5.13647 21.6235 5.13647 15.7576C5.13647 9.89164 9.89175 5.13636 15.7577 5.13636C18.3212 5.13636 20.6737 6.04461 22.5097 7.55812L23.5745 6.4933Z" fill="white"/>
</svg>
