<svg xmlns="http://www.w3.org/2000/svg" xmlns:xlink="http://www.w3.org/1999/xlink" width="17" height="22" viewBox="0 0 17 22">
  <defs>
    <clipPath id="clip-path">
      <rect id="Rectangle_253" data-name="Rectangle 253" width="17" height="22" transform="translate(0 -0.417)" />
    </clipPath>
  </defs>
  <g id="Icon-Map" transform="translate(0 0.417)" clip-path="url(#clip-path)">
    <path id="Path_161" data-name="Path 161" d="M13.122,1.46A8.393,8.393,0,0,0,1.58,13.3H1.561l.169.2q.18.23.36.446l6.295,7.645L14.536,14.1a8.542,8.542,0,0,0,.647-.791l.156-.185h-.012A8.393,8.393,0,0,0,13.122,1.46M8.385,12a3.6,3.6,0,1,1,3.6-3.6,3.6,3.6,0,0,1-3.6,3.6" transform="translate(0 0)"/>
  </g>
</svg>
