<svg id="Icon-CoastalWetlands-sm-rev" xmlns="http://www.w3.org/2000/svg" xmlns:xlink="http://www.w3.org/1999/xlink" width="28" height="28" viewBox="0 0 28 28">
  <defs>
    <clipPath id="clip-path">
      <rect id="Rectangle_353" data-name="Rectangle 353" width="28" height="28" fill="none"/>
    </clipPath>
  </defs>
  <g id="Group_443" data-name="Group 443" clip-path="url(#clip-path)">
    <path id="Path_327" data-name="Path 327" d="M13.707,2.391h0a5.753,5.753,0,0,0,0,8.135,5.753,5.753,0,0,0,0-8.135" fill="#fff"/>
    <path id="Path_328" data-name="Path 328" d="M4.357,6.8h0a8.1,8.1,0,0,1,8.83,7.285A8.094,8.094,0,0,1,4.357,6.8" fill="#fff"/>
    <path id="Path_329" data-name="Path 329" d="M23.138,6.8h0a8.094,8.094,0,0,0-8.83,7.285A8.094,8.094,0,0,0,23.138,6.8" fill="#fff"/>
    <path id="Path_330" data-name="Path 330" d="M5.8,18.116h0a5.083,5.083,0,0,1,6.639-2.757A5.083,5.083,0,0,1,5.8,18.116" fill="#fff"/>
    <path id="Path_331" data-name="Path 331" d="M21.743,18.116h0A5.083,5.083,0,0,0,15.1,15.359a5.083,5.083,0,0,0,6.639,2.757" fill="#fff"/>
    <line id="Line_135" data-name="Line 135" y2="10.366" transform="translate(13.747 14.973)" fill="none" stroke="#000" stroke-width="1"/>
    <path id="Path_332" data-name="Path 332" d="M7.646,25.593v-.6a2.019,2.019,0,0,1,.24-.972,4.6,4.6,0,0,1,1.342-1.411l2.211-1.683A11.534,11.534,0,0,0,12.9,19.6l.874-.943" fill="none" stroke="#000" stroke-width="1"/>
    <path id="Path_333" data-name="Path 333" d="M19.848,25.593v-.6a2.019,2.019,0,0,0-.24-.972,4.6,4.6,0,0,0-1.342-1.411l-2.21-1.683A11.475,11.475,0,0,1,14.59,19.6l-.874-.943" fill="none" stroke="#000" stroke-width="1"/>
  </g>
</svg>
