<svg id="Icon-Peatlands-sm-rev" xmlns="http://www.w3.org/2000/svg" xmlns:xlink="http://www.w3.org/1999/xlink" width="28" height="28" viewBox="0 0 28 28">
  <defs>
    <clipPath id="clip-path">
      <rect id="Rectangle_357" data-name="Rectangle 357" width="28" height="28" fill="none"/>
    </clipPath>
  </defs>
  <g id="Group_451" data-name="Group 451" clip-path="url(#clip-path)">
    <path id="Path_348" data-name="Path 348" d="M9.511,10.2c0-.009-.01-.024-.016-.041a10.774,10.774,0,0,0-1.2-2.307c-.419-.62-.592-.62-.592-.62-.585.52-1.609,1.451-2.23,2.138a14.3,14.3,0,0,0-3.33,5.925A17.841,17.841,0,0,1,5.868,11.56a.512.512,0,0,1,.812.366c.154,1.624.149,3.357.142,5.192,0,.222,0,.452,0,.68h3.727a23.137,23.137,0,0,0-1.024-7.563L9.511,10.2" fill="#fff"/>
    <path id="Path_349" data-name="Path 349" d="M12.418,12.132a47.641,47.641,0,0,1-.173,5.665H15.9c.277-5.884-.656-11.036-5.979-14.279a20.2,20.2,0,0,1,2.5,8.614" fill="#fff"/>
    <path id="Path_350" data-name="Path 350" d="M23.05,9.209a25.047,25.047,0,0,0-2.5-2.743l-.614,1.08A20.924,20.924,0,0,0,17.453,17.8h3.489a41.409,41.409,0,0,1,.317-6.2.513.513,0,0,1,.832-.322,25.566,25.566,0,0,1,3.769,3.881,14.679,14.679,0,0,0-2.81-5.952" fill="#fff"/>
    <path id="Path_351" data-name="Path 351" d="M5.235,22.76H22.766v-.569a2.522,2.522,0,0,0-2.522-2.522H7.757a2.522,2.522,0,0,0-2.522,2.522Z" fill="#fff"/>
  </g>
</svg>
