<svg id="Icon-Biodiversity" xmlns="http://www.w3.org/2000/svg" xmlns:xlink="http://www.w3.org/1999/xlink" width="30" height="30" viewBox="0 0 30 30">
  <defs>
    <clipPath id="clip-path">
      <rect id="Rectangle_401" data-name="Rectangle 401" width="30" height="30" fill="none"/>
    </clipPath>
  </defs>
  <g id="Group_549" data-name="Group 549" clip-path="url(#clip-path)">
    <path id="Path_435" data-name="Path 435" d="M9.1,6.076a1.211,1.211,0,1,0,1.217,1.211A1.214,1.214,0,0,0,9.1,6.076" fill="#828282" fill-rule="evenodd"/>
    <path id="Path_436" data-name="Path 436" d="M14.637,11c2.369,8.056,9.764,9.251,12.672,9.818l.885-.844S22.752,7.932,14.995,3.934A7.274,7.274,0,0,0,5.728,5.687l-3.814.6-.048,1.13,3.51,1.724s4.049,10.02,10.94,10.472c0,0,3.7.361,5.606-.578" fill="none" stroke="#828282" stroke-width="1.5"/>
    <line id="Line_155" data-name="Line 155" y1="4.691" x2="2.08" transform="translate(16.066 19.543)" fill="none" stroke="#828282" stroke-width="1.5"/>
    <line id="Line_156" data-name="Line 156" y1="4.691" x2="2.08" transform="translate(12.308 18.76)" fill="none" stroke="#828282" stroke-width="1.5"/>
    <line id="Line_157" data-name="Line 157" x2="24.323" y2="8.492" transform="translate(1.556 19.543)" fill="none" stroke="#828282" stroke-width="1.5"/>
    <line id="Line_158" data-name="Line 158" x1="6.01" y2="2.184" transform="translate(2.496 22.118)" fill="none" stroke="#828282" stroke-width="1.5"/>
  </g>
</svg>
